<svg width="229" height="229" viewBox="0 0 229 229" fill="none" xmlns="http://www.w3.org/2000/svg">
<rect width="229" height="229" rx="114.5" fill="#49796B"/>
<path d="M144.069 76H93.4099C89.8533 76 86.4425 77.3479 83.9277 79.7473C81.4128 82.1466 80 85.4008 80 88.794V148.499C80 149.63 80.4709 150.715 81.3092 151.515C82.1475 152.315 83.2844 152.764 84.47 152.764H138.109C139.295 152.764 140.432 152.315 141.27 151.515C142.108 150.715 142.579 149.63 142.579 148.499C142.579 147.368 142.108 146.283 141.27 145.484C140.432 144.684 139.295 144.235 138.109 144.235H88.9399V142.813C88.9399 141.682 89.4108 140.597 90.2491 139.797C91.0874 138.998 92.2243 138.548 93.4099 138.548H144.069C145.255 138.548 146.392 138.099 147.23 137.299C148.068 136.5 148.539 135.415 148.539 134.284V80.2647C148.539 79.1336 148.068 78.0489 147.23 77.2491C146.392 76.4493 145.255 76 144.069 76ZM139.599 130.019H93.4099C91.8869 130.016 90.3748 130.264 88.9399 130.751V88.794C88.9399 87.6629 89.4108 86.5782 90.2491 85.7784C91.0874 84.9786 92.2243 84.5293 93.4099 84.5293H139.599V130.019Z" fill="black" fill-opacity="0.5"/>
</svg>
